{
  "asset": {
    "version": "2.0",
    "generator": "THREE.GLTFExporter r164"
  },
  "scenes": [
    {
      "name": "Scene",
      "nodes": [
        8
      ]
    }
  ],
  "scene": 0,
  "nodes": [
    {
      "name": "Cube001",
      "mesh": 0
    },
    {
      "name": "Cube001_1",
      "mesh": 1
    },
    {
      "name": "Cube001_2",
      "mesh": 2
    },
    {
      "name": "Cube001_3",
      "mesh": 3
    },
    {
      "name": "Cube001_4",
      "mesh": 4
    },
    {
      "name": "Cube001_5",
      "mesh": 5
    },
    {
      "name": "Cube001_6",
      "mesh": 6
    },
    {
      "matrix": [
        6.559830188751221,
        0,
        0,
        0,
        0,
        6.5598297119140625,
        0,
        0,
        0,
        0,
        6.5598297119140625,
        0,
        0,
        0,
        0,
        1
      ],
      "name": "Cube",
      "extras": {
        "name": "Cube"
      },
      "children": [
        0,
        1,
        2,
        3,
        4,
        5,
        6
      ]
    },
    {
      "matrix": [
        0.5,
        0,
        0,
        0,
        0,
        0.5,
        0,
        0,
        0,
        0,
        0.5,
        0,
        0,
        0,
        0,
        1
      ],
      "name": "CubeLogo4.glb",
      "children": [
        7
      ]
    }
  ],
  "bufferViews": [
    {
      "buffer": 0,
      "byteOffset": 0,
      "byteLength": 288,
      "target": 34962,
      "byteStride": 12
    },
    {
      "buffer": 0,
      "byteOffset": 288,
      "byteLength": 288,
      "target": 34962,
      "byteStride": 12
    },
    {
      "buffer": 0,
      "byteOffset": 576,
      "byteLength": 192,
      "target": 34962,
      "byteStride": 8
    },
    {
      "buffer": 0,
      "byteOffset": 768,
      "byteLength": 72,
      "target": 34963
    },
    {
      "buffer": 0,
      "byteOffset": 840,
      "byteLength": 28728,
      "target": 34962,
      "byteStride": 12
    },
    {
      "buffer": 0,
      "byteOffset": 29568,
      "byteLength": 28728,
      "target": 34962,
      "byteStride": 12
    },
    {
      "buffer": 0,
      "byteOffset": 58296,
      "byteLength": 19152,
      "target": 34962,
      "byteStride": 8
    },
    {
      "buffer": 0,
      "byteOffset": 77448,
      "byteLength": 20148,
      "target": 34963
    },
    {
      "buffer": 0,
      "byteOffset": 97596,
      "byteLength": 25356,
      "target": 34962,
      "byteStride": 12
    },
    {
      "buffer": 0,
      "byteOffset": 122952,
      "byteLength": 25356,
      "target": 34962,
      "byteStride": 12
    },
    {
      "buffer": 0,
      "byteOffset": 148308,
      "byteLength": 16904,
      "target": 34962,
      "byteStride": 8
    },
    {
      "buffer": 0,
      "byteOffset": 165212,
      "byteLength": 17448,
      "target": 34963
    },
    {
      "buffer": 0,
      "byteOffset": 182660,
      "byteLength": 31680,
      "target": 34962,
      "byteStride": 12
    },
    {
      "buffer": 0,
      "byteOffset": 214340,
      "byteLength": 31680,
      "target": 34962,
      "byteStride": 12
    },
    {
      "buffer": 0,
      "byteOffset": 246020,
      "byteLength": 21120,
      "target": 34962,
      "byteStride": 8
    },
    {
      "buffer": 0,
      "byteOffset": 267140,
      "byteLength": 21044,
      "target": 34963
    },
    {
      "buffer": 0,
      "byteOffset": 288184,
      "byteLength": 97164,
      "target": 34962,
      "byteStride": 12
    },
    {
      "buffer": 0,
      "byteOffset": 385348,
      "byteLength": 97164,
      "target": 34962,
      "byteStride": 12
    },
    {
      "buffer": 0,
      "byteOffset": 482512,
      "byteLength": 64776,
      "target": 34962,
      "byteStride": 8
    },
    {
      "buffer": 0,
      "byteOffset": 547288,
      "byteLength": 64368,
      "target": 34963
    },
    {
      "buffer": 0,
      "byteOffset": 611656,
      "byteLength": 31680,
      "target": 34962,
      "byteStride": 12
    },
    {
      "buffer": 0,
      "byteOffset": 643336,
      "byteLength": 31680,
      "target": 34962,
      "byteStride": 12
    },
    {
      "buffer": 0,
      "byteOffset": 675016,
      "byteLength": 21120,
      "target": 34962,
      "byteStride": 8
    },
    {
      "buffer": 0,
      "byteOffset": 696136,
      "byteLength": 21044,
      "target": 34963
    },
    {
      "buffer": 0,
      "byteOffset": 717180,
      "byteLength": 28344,
      "target": 34962,
      "byteStride": 12
    },
    {
      "buffer": 0,
      "byteOffset": 745524,
      "byteLength": 28344,
      "target": 34962,
      "byteStride": 12
    },
    {
      "buffer": 0,
      "byteOffset": 773868,
      "byteLength": 18896,
      "target": 34962,
      "byteStride": 8
    },
    {
      "buffer": 0,
      "byteOffset": 792764,
      "byteLength": 20028,
      "target": 34963
    }
  ],
  "buffers": [
    {
      "byteLength": 812792,
      "uri": "data:application/octet-stream;base64,"
    }
  ],
  "accessors": [
    {
      "bufferView": 0,
      "componentType": 5126,
      "count": 24,
      "max": [
        1.3151214122772217,
        1.0029520988464355,
        1.1564874649047852
      ],
      "min": [
        -0.6848785281181335,
        -0.9970479011535645,
        -0.8435124158859253
      ],
      "type": "VEC3"
    },
    {
      "bufferView": 1,
      "componentType": 5126,
      "count": 24,
      "max": [
        1,
        1,
        1
      ],
      "min": [
        -1,
        -1,
        -1
      ],
      "type": "VEC3"
    },
    {
      "bufferView": 2,
      "componentType": 5126,
      "count": 24,
      "max": [
        0.875,
        1
      ],
      "min": [
        0.125,
        0
      ],
      "type": "VEC2"
    },
    {
      "bufferView": 3,
      "componentType": 5123,
      "count": 36,
      "max": [
        23
      ],
      "min": [
        0
      ],
      "type": "SCALAR"
    },
    {
      "bufferView": 4,
      "componentType": 5126,
      "count": 2394,
      "max": [
        1.2606837749481201,
        0.9194671511650085,
        1.248478889465332
      ],
      "min": [
        -0.6115495562553406,
        -0.9582967758178711,
        -0.9189785718917847
      ],
      "type": "VEC3"
    },
    {
      "bufferView": 5,
      "componentType": 5126,
      "count": 2394,
      "max": [
        1,
        1,
        1
      ],
      "min": [
        -1,
        -1,
        -1
      ],
      "type": "VEC3"
    },
    {
      "bufferView": 6,
      "componentType": 5126,
      "count": 2394,
      "max": [
        0.875,
        1
      ],
      "min": [
        0,
        0
      ],
      "type": "VEC2"
    },
    {
      "bufferView": 7,
      "componentType": 5123,
      "count": 10074,
      "max": [
        2393
      ],
      "min": [
        0
      ],
      "type": "SCALAR"
    },
    {
      "bufferView": 8,
      "componentType": 5126,
      "count": 2113,
      "max": [
        1.441098690032959,
        0.9399158358573914,
        1.0839595794677734
      ],
      "min": [
        -0.7915236353874207,
        -0.955679178237915,
        -0.7587703466415405
      ],
      "type": "VEC3"
    },
    {
      "bufferView": 9,
      "componentType": 5126,
      "count": 2113,
      "max": [
        1,
        1,
        1
      ],
      "min": [
        -1,
        -1,
        -1
      ],
      "type": "VEC3"
    },
    {
      "bufferView": 10,
      "componentType": 5126,
      "count": 2113,
      "max": [
        0.875,
        1
      ],
      "min": [
        0,
        0
      ],
      "type": "VEC2"
    },
    {
      "bufferView": 11,
      "componentType": 5123,
      "count": 8724,
      "max": [
        2112
      ],
      "min": [
        0
      ],
      "type": "SCALAR"
    },
    {
      "bufferView": 12,
      "componentType": 5126,
      "count": 2640,
      "max": [
        1.247436285018921,
        1.1145286560058594,
        1.0733592510223389
      ],
      "min": [
        -0.6303269267082214,
        0.9763993620872498,
        -0.7688864469528198
      ],
      "type": "VEC3"
    },
    {
      "bufferView": 13,
      "componentType": 5126,
      "count": 2640,
      "max": [
        1,
        1,
        1
      ],
      "min": [
        -1,
        -1,
        -1
      ],
      "type": "VEC3"
    },
    {
      "bufferView": 14,
      "componentType": 5126,
      "count": 2640,
      "max": [
        0.875,
        1
      ],
      "min": [
        0,
        0
      ],
      "type": "VEC2"
    },
    {
      "bufferView": 15,
      "componentType": 5123,
      "count": 10521,
      "max": [
        2639
      ],
      "min": [
        0
      ],
      "type": "SCALAR"
    },
    {
      "bufferView": 16,
      "componentType": 5126,
      "count": 8097,
      "max": [
        -0.6531259417533875,
        0.9399356245994568,
        1.0834755897521973
      ],
      "min": [
        -0.7915236353874207,
        -0.9378479719161987,
        -0.7587703466415405
      ],
      "type": "VEC3"
    },
    {
      "bufferView": 17,
      "componentType": 5126,
      "count": 8097,
      "max": [
        1,
        1,
        1
      ],
      "min": [
        -1,
        -1,
        -1
      ],
      "type": "VEC3"
    },
    {
      "bufferView": 18,
      "componentType": 5126,
      "count": 8097,
      "max": [
        0.875,
        1
      ],
      "min": [
        0,
        0
      ],
      "type": "VEC2"
    },
    {
      "bufferView": 19,
      "componentType": 5123,
      "count": 32184,
      "max": [
        8096
      ],
      "min": [
        0
      ],
      "type": "SCALAR"
    },
    {
      "bufferView": 20,
      "componentType": 5126,
      "count": 2640,
      "max": [
        1.279900312423706,
        -0.9713326692581177,
        1.0669443607330322
      ],
      "min": [
        -0.5978633761405945,
        -1.1094622611999512,
        -0.7753013372421265
      ],
      "type": "VEC3"
    },
    {
      "bufferView": 21,
      "componentType": 5126,
      "count": 2640,
      "max": [
        1,
        1,
        1
      ],
      "min": [
        -1,
        -1,
        -1
      ],
      "type": "VEC3"
    },
    {
      "bufferView": 22,
      "componentType": 5126,
      "count": 2640,
      "max": [
        0.875,
        1
      ],
      "min": [
        0,
        0
      ],
      "type": "VEC2"
    },
    {
      "bufferView": 23,
      "componentType": 5123,
      "count": 10521,
      "max": [
        2639
      ],
      "min": [
        0
      ],
      "type": "SCALAR"
    },
    {
      "bufferView": 24,
      "componentType": 5126,
      "count": 2362,
      "max": [
        1.2306957244873047,
        0.9633612036705017,
        -0.7785261869430542
      ],
      "min": [
        -0.6115495562553406,
        -0.9144023656845093,
        -0.9189785718917847
      ],
      "type": "VEC3"
    },
    {
      "bufferView": 25,
      "componentType": 5126,
      "count": 2362,
      "max": [
        1,
        1,
        1
      ],
      "min": [
        -1,
        -1,
        -1
      ],
      "type": "VEC3"
    },
    {
      "bufferView": 26,
      "componentType": 5126,
      "count": 2362,
      "max": [
        0.875,
        1
      ],
      "min": [
        0,
        0
      ],
      "type": "VEC2"
    },
    {
      "bufferView": 27,
      "componentType": 5123,
      "count": 10014,
      "max": [
        2361
      ],
      "min": [
        0
      ],
      "type": "SCALAR"
    }
  ],
  "materials": [
    {
      "pbrMetallicRoughness": {
        "baseColorFactor": [
          0.9636427760124207,
          0.9726770520210266,
          1,
          1
        ],
        "metallicFactor": 0.2380952388048172,
        "roughnessFactor": 0.5428571701049805
      },
      "doubleSided": true,
      "name": "Material.001"
    },
    {
      "pbrMetallicRoughness": {
        "baseColorFactor": [
          0.12743684649467468,
          0.1274377852678299,
          0.1356334239244461,
          1
        ],
        "metallicFactor": 1,
        "roughnessFactor": 0.5
      },
      "doubleSided": true,
      "name": "Material.017"
    },
    {
      "pbrMetallicRoughness": {
        "baseColorFactor": [
          0.015995992347598076,
          0.0318959578871727,
          0.30946898460388184,
          1
        ],
        "metallicFactor": 1,
        "roughnessFactor": 0.5
      },
      "doubleSided": true,
      "name": "Material.019"
    },
    {
      "pbrMetallicRoughness": {
        "baseColorFactor": [
          0.021757284179329872,
          0.021757284179329872,
          0.021757284179329872,
          1
        ],
        "metallicFactor": 0,
        "roughnessFactor": 0.5
      },
      "doubleSided": true,
      "name": "Material.018"
    },
    {
      "pbrMetallicRoughness": {
        "baseColorFactor": [
          0.015995992347598076,
          0.0318959578871727,
          0.30946898460388184,
          1
        ],
        "metallicFactor": 1,
        "roughnessFactor": 0.5
      },
      "doubleSided": true,
      "name": "Material.016"
    },
    {
      "pbrMetallicRoughness": {
        "baseColorFactor": [
          0.021757284179329872,
          0.021757284179329872,
          0.021757284179329872,
          1
        ],
        "metallicFactor": 0,
        "roughnessFactor": 0.5
      },
      "doubleSided": true,
      "name": "Material.015"
    },
    {
      "pbrMetallicRoughness": {
        "baseColorFactor": [
          0.12743684649467468,
          0.1274377852678299,
          0.1356334239244461,
          1
        ],
        "metallicFactor": 1,
        "roughnessFactor": 0.5
      },
      "doubleSided": true,
      "name": "Material.014"
    }
  ],
  "meshes": [
    {
      "primitives": [
        {
          "mode": 4,
          "attributes": {
            "POSITION": 0,
            "NORMAL": 1,
            "TEXCOORD_0": 2
          },
          "indices": 3,
          "material": 0
        }
      ]
    },
    {
      "primitives": [
        {
          "mode": 4,
          "attributes": {
            "POSITION": 4,
            "NORMAL": 5,
            "TEXCOORD_0": 6
          },
          "indices": 7,
          "material": 1
        }
      ]
    },
    {
      "primitives": [
        {
          "mode": 4,
          "attributes": {
            "POSITION": 8,
            "NORMAL": 9,
            "TEXCOORD_0": 10
          },
          "indices": 11,
          "material": 2
        }
      ]
    },
    {
      "primitives": [
        {
          "mode": 4,
          "attributes": {
            "POSITION": 12,
            "NORMAL": 13,
            "TEXCOORD_0": 14
          },
          "indices": 15,
          "material": 3
        }
      ]
    },
    {
      "primitives": [
        {
          "mode": 4,
          "attributes": {
            "POSITION": 16,
            "NORMAL": 17,
            "TEXCOORD_0": 18
          },
          "indices": 19,
          "material": 4
        }
      ]
    },
    {
      "primitives": [
        {
          "mode": 4,
          "attributes": {
            "POSITION": 20,
            "NORMAL": 21,
            "TEXCOORD_0": 22
          },
          "indices": 23,
          "material": 5
        }
      ]
    },
    {
      "primitives": [
        {
          "mode": 4,
          "attributes": {
            "POSITION": 24,
            "NORMAL": 25,
            "TEXCOORD_0": 26
          },
          "indices": 27,
          "material": 6
        }
      ]
    }
  ]
}